<?xml version="1.0" encoding="iso-8859-1"?>
<!-- Generator: Adobe Illustrator 19.0.0, SVG Export Plug-In . SVG Version: 6.00 Build 0)  -->
<svg version="1.1" id="Layer_1" xmlns="http://www.w3.org/2000/svg" xmlns:xlink="http://www.w3.org/1999/xlink" x="0px" y="0px"
	 viewBox="0 0 512 512" style="enable-background:new 0 0 512 512;" xml:space="preserve">
<g>
	<g>
		<path d="M240.419,42.298l-129.114,96.836H16.696C7.475,139.133,0,146.608,0,155.829v200.35c0,9.221,7.475,16.696,16.696,16.696
			h94.609l129.114,96.836c10.92,8.19,26.713,0.47,26.713-13.357V55.654C267.133,41.928,251.415,34.051,240.419,42.298z
			 M100.175,339.483H33.392V172.525h66.783V339.483z M233.741,422.962l-100.175-75.131V164.177l100.175-75.131V422.962z"/>
	</g>
</g>
<g>
	<g>
		<path d="M438.761,78.919c-6.519-6.52-17.091-6.52-23.611,0c-6.52,6.52-6.52,17.091,0,23.611
			c40.92,40.92,63.457,95.423,63.458,153.47c0.001,58.048-22.535,112.555-63.458,153.478c-6.52,6.52-6.52,17.091,0,23.611
			c3.26,3.26,7.533,4.891,11.806,4.891s8.546-1.63,11.805-4.891c47.23-47.23,73.24-110.122,73.239-177.09
			C511.999,189.034,485.989,126.145,438.761,78.919z"/>
	</g>
</g>
<g>
	<g>
		<path d="M391.545,126.124c-6.52-6.523-17.092-6.524-23.611-0.006c-6.521,6.518-6.525,17.09-0.007,23.611
			c58.571,58.6,58.571,153.949,0,212.549c-6.518,6.521-6.516,17.093,0.007,23.611c3.26,3.259,7.531,4.887,11.803,4.887
			c4.274,0,8.549-1.632,11.808-4.893C463.126,314.268,463.126,197.74,391.545,126.124z"/>
	</g>
</g>
<g>
	<g>
		<path d="M344.342,173.373c-6.518-6.522-17.09-6.522-23.611-0.004c-6.521,6.519-6.524,17.09-0.004,23.611
			c32.532,32.546,32.517,85.516-0.032,118.079c-6.518,6.523-6.516,17.093,0.006,23.612c3.26,3.259,7.532,4.887,11.803,4.887
			c4.274,0,8.548-1.631,11.807-4.893C389.871,293.085,389.886,218.936,344.342,173.373z"/>
	</g>
</g>
<g>
</g>
<g>
</g>
<g>
</g>
<g>
</g>
<g>
</g>
<g>
</g>
<g>
</g>
<g>
</g>
<g>
</g>
<g>
</g>
<g>
</g>
<g>
</g>
<g>
</g>
<g>
</g>
<g>
</g>
</svg>
